<svg xmlns="http://www.w3.org/2000/svg" viewBox="0 0 96 96" role="img" aria-labelledby="eagle-title eagle-desc">
  <title id="eagle-title">MemoArk letter eagle</title>
  <desc id="eagle-desc">A calm sea-green eagle with a paper-fold wing.</desc>
  <defs>
    <linearGradient id="eagle-body" x1="31" y1="26" x2="65" y2="81" gradientUnits="userSpaceOnUse">
      <stop stop-color="#177184"/>
      <stop offset="1" stop-color="#07192B"/>
    </linearGradient>
    <linearGradient id="eagle-head" x1="45" y1="22" x2="68" y2="49" gradientUnits="userSpaceOnUse">
      <stop stop-color="#F7FFFE"/>
      <stop offset="1" stop-color="#C4F3EA"/>
    </linearGradient>
    <linearGradient id="eagle-wing" x1="25" y1="45" x2="55" y2="70" gradientUnits="userSpaceOnUse">
      <stop stop-color="#60E0CD"/>
      <stop offset="1" stop-color="#159B8C"/>
    </linearGradient>
    <filter id="eagle-shadow" x="-20%" y="-20%" width="140%" height="160%">
      <feGaussianBlur stdDeviation="2.2"/>
    </filter>
  </defs>
  <circle cx="48" cy="45" r="39" fill="#5EEAD4" opacity=".09"/>
  <circle cx="48" cy="45" r="34.5" fill="none" stroke="#5EEAD4" stroke-opacity=".16"/>
  <ellipse cx="49" cy="84" rx="24" ry="4.5" fill="#07192B" opacity=".16" filter="url(#eagle-shadow)"/>
  <path d="M39 31c8-6 20-5 26 3 5 7 4 15 0 22l-8 24H37l-7-22c-4-12-1-21 9-27Z" fill="url(#eagle-body)"/>
  <path d="M45 27c4-5 12-7 19-3 6 3 9 8 8 14-1 7-7 12-15 13l-9-5c3-3 4-7 2-11l-5-8Z" fill="url(#eagle-head)"/>
  <path d="M69 34c7 0 11 2 14 5-4 5-9 7-15 6l-3-5 4-6Z" fill="#F28C72"/>
  <path d="M69 39h11" stroke="#BA644E" stroke-linecap="round"/>
  <circle cx="62" cy="34" r="2.7" fill="#102F45"/>
  <circle cx="63" cy="33" r=".9" fill="#F7FFFE"/>
  <path d="M38 43c-9 2-16 9-19 19 7 1 12 0 17-3-3 5-5 10-5 16 11-1 20-7 26-17l-2-15c-6-2-11-2-17 0Z" fill="url(#eagle-wing)"/>
  <path d="M29 62c8-1 15-5 21-12M33 70c8-3 15-8 20-15" fill="none" stroke="#B9F4E9" stroke-width="1.7" stroke-linecap="round" opacity=".82"/>
  <path d="M55 55c4 7 7 14 8 22H48c2-5 4-11 7-22Z" fill="#0B3144" opacity=".72"/>
  <path d="M38 80l-7 5h12l5-5M55 80l-3 5h12l-2-5" fill="#F7FFFE" stroke="#D2F7F0" stroke-linejoin="round"/>
  <path d="M38 83c0-3 2-5 5-6M59 83c0-3-2-5-5-6" fill="none" stroke="#F28C72" stroke-width="2" stroke-linecap="round"/>
</svg>
