<svg xmlns="http://www.w3.org/2000/svg" viewBox="0 0 96 96" role="img" aria-labelledby="owl-title owl-desc">
  <title id="owl-title">MemoArk note owl</title>
  <desc id="owl-desc">A smooth navy and mint owl carrying a folded note.</desc>
  <defs>
    <linearGradient id="owl-body" x1="24" y1="18" x2="72" y2="82" gradientUnits="userSpaceOnUse">
      <stop stop-color="#175369"/>
      <stop offset="1" stop-color="#07192B"/>
    </linearGradient>
    <linearGradient id="owl-face" x1="31" y1="30" x2="62" y2="56" gradientUnits="userSpaceOnUse">
      <stop stop-color="#F7FFFE"/>
      <stop offset="1" stop-color="#C8F6ED"/>
    </linearGradient>
    <linearGradient id="owl-note" x1="39" y1="58" x2="57" y2="75" gradientUnits="userSpaceOnUse">
      <stop stop-color="#F7FFFE"/>
      <stop offset="1" stop-color="#B9F4E9"/>
    </linearGradient>
    <filter id="owl-shadow" x="-20%" y="-20%" width="140%" height="160%">
      <feGaussianBlur stdDeviation="2.2"/>
    </filter>
  </defs>
  <circle cx="48" cy="45" r="39" fill="#5EEAD4" opacity=".09"/>
  <circle cx="48" cy="45" r="34.5" fill="none" stroke="#5EEAD4" stroke-opacity=".16"/>
  <ellipse cx="48" cy="84" rx="23" ry="4.5" fill="#07192B" opacity=".16" filter="url(#owl-shadow)"/>
  <path d="M24 42c0-11 5-20 13-25l4 8c2-1 5-1 7-1s5 0 7 1l4-8c8 5 13 14 13 25v22c0 14-10 23-24 23S24 78 24 64V42Z" fill="url(#owl-body)"/>
  <path d="M27 55c-7 7-7 18 1 25 4-2 7-6 9-11l-2-18c-3 1-6 2-8 4Z" fill="#0D5660"/>
  <path d="M69 55c7 7 7 18-1 25-4-2-7-6-9-11l2-18c3 1 6 2 8 4Z" fill="#0D5660"/>
  <path d="M29 41c0-8 6-14 14-14 2 0 4 1 5 2 1-1 3-2 5-2 8 0 14 6 14 14 0 10-8 17-19 17S29 51 29 41Z" fill="url(#owl-face)"/>
  <path d="M48 29v27" stroke="#79DDCC" stroke-opacity=".55" stroke-linecap="round"/>
  <circle cx="40" cy="41" r="6.5" fill="#102F45"/>
  <circle cx="56" cy="41" r="6.5" fill="#102F45"/>
  <circle cx="42" cy="39" r="1.8" fill="#F7FFFE"/>
  <circle cx="58" cy="39" r="1.8" fill="#F7FFFE"/>
  <circle cx="39" cy="44" r="1" fill="#5EEAD4" opacity=".75"/>
  <circle cx="55" cy="44" r="1" fill="#5EEAD4" opacity=".75"/>
  <path d="M44 49h8l-4 5-4-5Z" fill="#F28C72"/>
  <rect x="38" y="58" width="20" height="17" rx="4" fill="url(#owl-note)"/>
  <path d="M52 58v4c0 2 1 3 3 3h3" fill="none" stroke="#67D8C7" stroke-linecap="round" stroke-linejoin="round"/>
  <path d="M42 66h10M42 70h7" stroke="#0D5660" stroke-width="1.6" stroke-linecap="round"/>
  <path d="M40 84c1-3 3-5 6-5M56 84c-1-3-3-5-6-5" fill="none" stroke="#F28C72" stroke-width="2" stroke-linecap="round"/>
</svg>
