<svg xmlns="http://www.w3.org/2000/svg" viewBox="0 0 96 96" role="img" aria-labelledby="toucan-title toucan-desc">
  <title id="toucan-title">MemoArk bookmark toucan</title>
  <desc id="toucan-desc">A refined navy toucan with a mint and coral beak and bookmark.</desc>
  <defs>
    <linearGradient id="toucan-body" x1="32" y1="36" x2="64" y2="83" gradientUnits="userSpaceOnUse">
      <stop stop-color="#164F63"/>
      <stop offset="1" stop-color="#07192B"/>
    </linearGradient>
    <linearGradient id="toucan-beak" x1="52" y1="28" x2="84" y2="45" gradientUnits="userSpaceOnUse">
      <stop stop-color="#5EEAD4"/>
      <stop offset=".62" stop-color="#3CC7B5"/>
      <stop offset="1" stop-color="#F28C72"/>
    </linearGradient>
    <linearGradient id="toucan-throat" x1="37" y1="31" x2="57" y2="57" gradientUnits="userSpaceOnUse">
      <stop stop-color="#F7FFFE"/>
      <stop offset="1" stop-color="#C5F4EB"/>
    </linearGradient>
    <filter id="toucan-shadow" x="-20%" y="-20%" width="140%" height="160%">
      <feGaussianBlur stdDeviation="2.2"/>
    </filter>
  </defs>
  <circle cx="48" cy="45" r="39" fill="#5EEAD4" opacity=".09"/>
  <circle cx="48" cy="45" r="34.5" fill="none" stroke="#5EEAD4" stroke-opacity=".16"/>
  <ellipse cx="48" cy="84" rx="24" ry="4.5" fill="#07192B" opacity=".16" filter="url(#toucan-shadow)"/>
  <path d="M33 39c4-9 13-14 23-11 9 3 14 11 13 20-1 6-5 10-9 13 3 6 4 13 2 20H33c-4-7-6-15-5-23 0-8 2-14 5-19Z" fill="url(#toucan-body)"/>
  <path d="M37 34c6-6 15-6 21-1 5 4 7 11 4 17-3 7-9 11-17 11-7 0-12-4-14-9 6-2 9-7 9-12 0-2-1-4-3-6Z" fill="url(#toucan-throat)"/>
  <path d="M53 28c14-2 26 2 34 12-8 7-20 10-33 8l-6-8 5-12Z" fill="url(#toucan-beak)"/>
  <path d="M55 45c11 1 20-1 28-5" fill="none" stroke="#0D5660" stroke-width="1.5" stroke-linecap="round" opacity=".72"/>
  <circle cx="53" cy="36" r="3" fill="#102F45"/>
  <circle cx="54" cy="35" r="1" fill="#F7FFFE"/>
  <path d="M36 56c-5 6-6 13-2 21 7-1 12-5 15-11l-1-13c-5-1-9 0-12 3Z" fill="#0D5660"/>
  <path d="M49 61l9-3v18l-4-3-5 3V61Z" fill="#F28C72"/>
  <path d="M30 81h36" stroke="#0D5660" stroke-width="2.6" stroke-linecap="round"/>
  <path d="M41 81c0-4 2-6 5-8M56 81c0-4-2-6-5-8" fill="none" stroke="#F28C72" stroke-width="2" stroke-linecap="round"/>
</svg>
